M48
; DRILL file {KiCad (6.99.0-1912-g359c99991b)} date Sat Jul  1 16:51:57 2023
; FORMAT={-:-/ absolute / metric / decimal}
; #@! TF.CreationDate,2023-07-01T16:51:57+07:00
; #@! TF.GenerationSoftware,Kicad,Pcbnew,(6.99.0-1912-g359c99991b)
; #@! TF.FileFunction,MixedPlating,1,2
FMAT,2
METRIC
; #@! TA.AperFunction,Plated,PTH,ViaDrill
T1C0.250
; #@! TA.AperFunction,Plated,PTH,ComponentDrill
T2C0.250
; #@! TA.AperFunction,Plated,PTH,ComponentDrill
T3C0.813
; #@! TA.AperFunction,Plated,PTH,ComponentDrill
T4C1.000
; #@! TA.AperFunction,Plated,PTH,ComponentDrill
T5C3.000
; #@! TA.AperFunction,NonPlated,NPTH,ComponentDrill
T6C0.500
; #@! TA.AperFunction,NonPlated,NPTH,ComponentDrill
T7C0.900
; #@! TA.AperFunction,NonPlated,NPTH,ComponentDrill
T8C1.300
; #@! TA.AperFunction,NonPlated,NPTH,ComponentDrill
T9C1.600
; #@! TA.AperFunction,NonPlated,NPTH,ComponentDrill
T10C1.900
; #@! TA.AperFunction,NonPlated,NPTH,ComponentDrill
T11C2.200
; #@! TA.AperFunction,NonPlated,NPTH,ComponentDrill
T12C4.300
; #@! TA.AperFunction,NonPlated,NPTH,ComponentDrill
T13C5.000
%
G90
G05
T1
X5.5Y-50.0
X8.1Y-25.8
X8.469Y-19.5
X8.5Y-29.0
X8.5Y-35.032
X8.669Y-14.7
X10.075Y-40.0
X12.0Y-9.4
X12.0Y-10.6
X13.169Y-38.6
X13.969Y-18.6
X13.969Y-31.05
X19.6Y-31.2
X20.0Y-14.0
X22.45Y-9.0
X22.45Y-12.5
X23.5Y-60.845
X24.5Y-46.5
X28.0Y-46.5
X28.0Y-47.9
X37.5Y-6.75
X45.3Y-60.0
X57.3Y-6.7
X64.3Y-59.0
X79.9Y-4.62
X95.8Y-9.37
X100.0Y-50.0
X104.0Y-50.0
X113.5Y-12.0
X159.0Y-13.0
X159.0Y-51.0
X159.05Y-32.0
X167.0Y-48.6
X168.0Y-50.3
X169.051Y-29.0
X171.5Y-9.37
X177.0Y-51.55
X179.7Y-57.0
X182.7Y-8.7
X190.5Y-4.62
X199.2Y-39.1
X200.5Y-3.9
X203.65Y-22.0
X203.65Y-41.45
X210.0Y-2.245
X220.0Y-6.6
X222.6Y-24.5
X222.6Y-43.8
X229.0Y-4.62
X232.0Y-42.05
X238.5Y-8.6
X241.0Y-60.2
X241.55Y-26.95
X241.55Y-46.0
X247.5Y-6.995
X261.8Y-21.063
X265.151Y-27.0
X267.751Y-20.5
X270.251Y-27.412
T2
X6.752Y-70.554
X7.661Y-70.029
X8.571Y-69.504
X10.697Y-81.786
X11.615Y-81.256
X12.515Y-80.736
X21.484Y-16.335
X21.484Y-17.385
X21.484Y-18.435
X21.484Y-35.335
X21.484Y-36.385
X21.484Y-37.435
X21.484Y-54.335
X21.484Y-55.385
X21.484Y-56.435
X29.967Y-76.404
X30.239Y-77.418
X30.511Y-78.433
X33.184Y-18.535
X33.184Y-19.575
X33.184Y-20.635
X33.184Y-37.535
X33.184Y-38.575
X33.184Y-39.635
X33.184Y-56.535
X33.184Y-57.575
X33.184Y-58.635
X40.484Y-13.96
X40.484Y-15.01
X40.484Y-16.06
X40.484Y-32.96
X40.484Y-34.01
X40.484Y-35.06
X40.484Y-51.96
X40.484Y-53.01
X40.484Y-54.06
X41.838Y-75.501
X42.107Y-76.505
X42.382Y-77.529
X49.984Y-71.585
X49.984Y-72.635
X49.984Y-73.685
X52.184Y-16.16
X52.184Y-17.2
X52.184Y-18.26
X52.184Y-35.16
X52.184Y-36.2
X52.184Y-37.26
X52.184Y-54.16
X52.184Y-55.2
X52.184Y-56.26
X59.484Y-11.585
X59.484Y-12.635
X59.484Y-13.685
X59.484Y-30.585
X59.484Y-31.635
X59.484Y-32.685
X59.484Y-49.585
X59.484Y-50.635
X59.484Y-51.685
X61.684Y-73.785
X61.684Y-74.825
X61.684Y-75.885
X71.184Y-13.785
X71.184Y-14.825
X71.184Y-15.885
X71.184Y-32.785
X71.184Y-33.825
X71.184Y-34.885
X71.184Y-51.785
X71.184Y-52.825
X71.184Y-53.885
X78.484Y-13.96
X78.484Y-15.01
X78.484Y-16.06
X78.484Y-32.96
X78.484Y-34.01
X78.484Y-35.06
X78.484Y-51.96
X78.484Y-53.01
X78.484Y-54.06
X90.184Y-16.16
X90.184Y-17.2
X90.184Y-18.26
X90.184Y-35.16
X90.184Y-36.2
X90.184Y-37.26
X90.184Y-54.16
X90.184Y-55.2
X90.184Y-56.26
X97.484Y-18.71
X97.484Y-19.76
X97.484Y-20.81
X97.484Y-37.71
X97.484Y-38.76
X97.484Y-39.81
X97.484Y-56.71
X97.484Y-57.76
X97.484Y-58.81
X109.184Y-20.91
X109.184Y-21.95
X109.184Y-23.01
X109.184Y-39.91
X109.184Y-40.95
X109.184Y-42.01
X109.184Y-58.91
X109.184Y-59.95
X109.184Y-61.01
X116.484Y-18.71
X116.484Y-19.76
X116.484Y-20.81
X116.484Y-37.71
X116.484Y-38.76
X116.484Y-39.81
X116.484Y-56.71
X116.484Y-57.76
X116.484Y-58.81
X128.184Y-20.91
X128.184Y-21.95
X128.184Y-23.01
X128.184Y-39.91
X128.184Y-40.95
X128.184Y-42.01
X128.184Y-58.91
X128.184Y-59.95
X128.184Y-61.01
X143.318Y-18.71
X143.318Y-19.76
X143.318Y-20.81
X143.318Y-37.71
X143.318Y-38.76
X143.318Y-39.81
X143.318Y-56.71
X143.318Y-57.76
X143.318Y-58.81
X155.018Y-20.91
X155.018Y-21.95
X155.018Y-23.01
X155.018Y-39.91
X155.018Y-40.95
X155.018Y-42.01
X155.018Y-58.91
X155.018Y-59.95
X155.018Y-61.01
X162.318Y-18.71
X162.318Y-19.76
X162.318Y-20.81
X162.318Y-37.71
X162.318Y-38.76
X162.318Y-39.81
X162.318Y-56.71
X162.318Y-57.76
X162.318Y-58.81
X174.018Y-20.91
X174.018Y-21.95
X174.018Y-23.01
X174.018Y-39.91
X174.018Y-40.95
X174.018Y-42.01
X174.018Y-58.91
X174.018Y-59.95
X174.018Y-61.01
X181.318Y-13.96
X181.318Y-15.01
X181.318Y-16.06
X181.318Y-32.96
X181.318Y-34.01
X181.318Y-35.06
X181.318Y-51.96
X181.318Y-53.01
X181.318Y-54.06
X193.018Y-16.16
X193.018Y-17.2
X193.018Y-18.26
X193.018Y-35.16
X193.018Y-36.2
X193.018Y-37.26
X193.018Y-54.16
X193.018Y-55.2
X193.018Y-56.26
X200.318Y-11.585
X200.318Y-12.635
X200.318Y-13.685
X200.318Y-30.585
X200.318Y-31.635
X200.318Y-32.685
X200.318Y-49.585
X200.318Y-50.635
X200.318Y-51.685
X209.818Y-71.585
X209.818Y-72.635
X209.818Y-73.685
X212.018Y-13.785
X212.018Y-14.825
X212.018Y-15.885
X212.018Y-32.785
X212.018Y-33.825
X212.018Y-34.885
X212.018Y-51.785
X212.018Y-52.825
X212.018Y-53.885
X219.318Y-13.96
X219.318Y-15.01
X219.318Y-16.06
X219.318Y-32.96
X219.318Y-34.01
X219.318Y-35.06
X219.318Y-51.96
X219.318Y-53.01
X219.318Y-54.06
X221.518Y-73.785
X221.518Y-74.825
X221.518Y-75.885
X229.861Y-74.11
X230.132Y-73.096
X230.404Y-72.082
X231.018Y-16.16
X231.018Y-17.2
X231.018Y-18.26
X231.018Y-35.16
X231.018Y-36.2
X231.018Y-37.26
X231.018Y-54.16
X231.018Y-55.2
X231.018Y-56.26
X238.318Y-16.335
X238.318Y-17.385
X238.318Y-18.435
X238.318Y-35.335
X238.318Y-36.385
X238.318Y-37.435
X238.318Y-54.335
X238.318Y-55.385
X238.318Y-56.435
X240.592Y-79.263
X240.867Y-78.24
X241.136Y-77.235
X250.018Y-18.535
X250.018Y-19.575
X250.018Y-20.635
X250.018Y-37.535
X250.018Y-38.575
X250.018Y-39.635
X250.018Y-56.535
X250.018Y-57.575
X250.018Y-58.635
X259.582Y-83.966
X260.491Y-84.491
X261.4Y-85.016
X267.337Y-74.934
X268.238Y-75.454
X269.156Y-75.984
T3
X2.52Y-12.172
X2.52Y-14.712
X2.52Y-17.252
X2.52Y-19.792
X2.52Y-22.332
X2.52Y-24.872
X2.52Y-27.412
X2.52Y-29.952
X2.52Y-32.492
X2.52Y-35.032
X2.52Y-37.572
X2.52Y-40.112
X17.74Y-12.172
X17.74Y-14.712
X17.74Y-17.252
X17.74Y-19.792
X17.74Y-22.332
X17.74Y-24.872
X17.74Y-27.412
X17.74Y-29.952
X17.74Y-32.492
X17.74Y-35.032
X17.74Y-37.572
X17.74Y-40.112
X258.765Y-12.172
X258.765Y-14.712
X258.765Y-17.252
X258.765Y-19.792
X258.765Y-22.332
X258.765Y-24.872
X258.765Y-27.412
X258.765Y-29.952
X258.765Y-32.492
X258.765Y-35.032
X258.765Y-37.572
X258.765Y-40.112
X273.985Y-12.172
X273.985Y-14.712
X273.985Y-17.252
X273.985Y-19.792
X273.985Y-22.332
X273.985Y-24.872
X273.985Y-27.412
X273.985Y-29.952
X273.985Y-32.492
X273.985Y-35.032
X273.985Y-37.572
X273.985Y-40.112
T4
X4.995Y-45.25
X7.535Y-45.25
X7.986Y-59.5
X10.075Y-45.25
X10.526Y-59.5
X12.615Y-45.25
X15.155Y-45.25
X261.348Y-45.25
X263.888Y-45.25
X265.976Y-59.5
X266.428Y-45.25
X268.516Y-59.5
X268.968Y-45.25
X271.508Y-45.25
T5
X9.336Y-72.93
X9.931Y-78.36
X24.834Y-17.385
X24.834Y-36.385
X24.834Y-55.385
X29.834Y-19.585
X29.834Y-38.585
X29.834Y-57.585
X33.475Y-76.551
X38.874Y-77.382
X43.834Y-15.01
X43.834Y-34.01
X43.834Y-53.01
X48.834Y-17.21
X48.834Y-36.21
X48.834Y-55.21
X53.334Y-72.635
X58.334Y-74.835
X62.834Y-12.635
X62.834Y-31.635
X62.834Y-50.635
X67.834Y-14.835
X67.834Y-33.835
X67.834Y-52.835
X81.834Y-15.01
X81.834Y-34.01
X81.834Y-53.01
X86.834Y-17.21
X86.834Y-36.21
X86.834Y-55.21
X100.834Y-19.76
X100.834Y-38.76
X100.834Y-57.76
X105.834Y-21.96
X105.834Y-40.96
X105.834Y-59.96
X119.834Y-19.76
X119.834Y-38.76
X119.834Y-57.76
X124.834Y-21.96
X124.834Y-40.96
X124.834Y-59.96
X146.668Y-19.76
X146.668Y-38.76
X146.668Y-57.76
X151.668Y-21.96
X151.668Y-40.96
X151.668Y-59.96
X165.668Y-19.76
X165.668Y-38.76
X165.668Y-57.76
X170.668Y-21.96
X170.668Y-40.96
X170.668Y-59.96
X184.668Y-15.01
X184.668Y-34.01
X184.668Y-53.01
X189.668Y-17.21
X189.668Y-36.21
X189.668Y-55.21
X203.668Y-12.635
X203.668Y-31.635
X203.668Y-50.635
X208.668Y-14.835
X208.668Y-33.835
X208.668Y-52.835
X213.168Y-72.635
X218.168Y-74.835
X222.668Y-15.01
X222.668Y-34.01
X222.668Y-53.01
X227.668Y-17.21
X227.668Y-36.21
X227.668Y-55.21
X233.368Y-73.963
X237.628Y-77.382
X241.668Y-17.385
X241.668Y-36.385
X241.668Y-55.385
X246.668Y-19.585
X246.668Y-38.585
X246.668Y-57.585
X262.166Y-81.59
X266.571Y-78.36
T6
X133.701Y-25.151
X133.701Y-25.891
X133.701Y-26.631
X133.701Y-27.371
X133.701Y-28.111
X133.701Y-28.851
X133.701Y-48.401
X133.701Y-49.141
X133.701Y-49.881
X133.701Y-50.621
X133.701Y-51.361
X133.701Y-52.101
X142.801Y-25.151
X142.801Y-25.891
X142.801Y-26.631
X142.801Y-27.371
X142.801Y-28.111
X142.801Y-28.851
X142.801Y-48.401
X142.801Y-49.141
X142.801Y-49.881
X142.801Y-50.621
X142.801Y-51.361
X142.801Y-52.101
T7
X1.721Y-53.5
X1.721Y-56.5
X274.781Y-53.5
X274.781Y-56.5
T8
X21.331Y-77.806
X35.054Y-9.435
X35.054Y-28.435
X35.054Y-47.435
X41.289Y-66.227
X54.054Y-7.06
X54.054Y-26.06
X54.054Y-45.06
X63.554Y-64.685
X73.054Y-4.685
X73.054Y-23.685
X73.054Y-42.685
X92.054Y-7.06
X92.054Y-26.06
X92.054Y-45.06
X111.054Y-11.81
X111.054Y-30.81
X111.054Y-49.81
X130.054Y-11.81
X130.054Y-30.81
X130.054Y-49.81
X156.888Y-11.81
X156.888Y-30.81
X156.888Y-49.81
X175.888Y-11.81
X175.888Y-30.81
X175.888Y-49.81
X194.888Y-7.06
X194.888Y-26.06
X194.888Y-45.06
X213.888Y-4.685
X213.888Y-23.685
X213.888Y-42.685
X223.388Y-64.685
X232.888Y-7.06
X232.888Y-26.06
X232.888Y-45.06
X245.298Y-68.929
X251.888Y-9.435
X251.888Y-28.435
X251.888Y-47.435
X260.391Y-68.764
T9
X22.044Y-77.14
X34.834Y-8.485
X34.834Y-27.485
X34.834Y-46.485
X40.831Y-65.366
X53.834Y-6.11
X53.834Y-25.11
X53.834Y-44.11
X63.334Y-63.735
X72.834Y-3.735
X72.834Y-22.735
X72.834Y-41.735
X91.834Y-6.11
X91.834Y-25.11
X91.834Y-44.11
X110.834Y-10.86
X110.834Y-29.86
X110.834Y-48.86
X129.834Y-10.86
X129.834Y-29.86
X129.834Y-48.86
X156.668Y-10.86
X156.668Y-29.86
X156.668Y-48.86
X175.668Y-10.86
X175.668Y-29.86
X175.668Y-48.86
X194.668Y-6.11
X194.668Y-25.11
X194.668Y-44.11
X213.668Y-3.735
X213.668Y-22.735
X213.668Y-41.735
X223.168Y-63.735
X232.668Y-6.11
X232.668Y-25.11
X232.668Y-44.11
X245.331Y-67.955
X251.668Y-8.485
X251.668Y-27.485
X251.668Y-46.485
X259.458Y-68.48
T10
X12.334Y-70.622
X17.834Y-80.148
X24.334Y-13.635
X24.334Y-32.635
X24.334Y-51.635
X32.021Y-73.058
X35.334Y-13.635
X35.334Y-32.635
X35.334Y-51.635
X42.647Y-70.211
X43.334Y-11.26
X43.334Y-30.26
X43.334Y-49.26
X52.834Y-68.885
X54.334Y-11.26
X54.334Y-30.26
X54.334Y-49.26
X62.334Y-8.885
X62.334Y-27.885
X62.334Y-46.885
X63.834Y-68.885
X73.334Y-8.885
X73.334Y-27.885
X73.334Y-46.885
X81.334Y-11.26
X81.334Y-30.26
X81.334Y-49.26
X92.334Y-11.26
X92.334Y-30.26
X92.334Y-49.26
X100.334Y-16.01
X100.334Y-35.01
X100.334Y-54.01
X111.334Y-16.01
X111.334Y-35.01
X111.334Y-54.01
X119.334Y-16.01
X119.334Y-35.01
X119.334Y-54.01
X130.334Y-16.01
X130.334Y-35.01
X130.334Y-54.01
X146.168Y-16.01
X146.168Y-35.01
X146.168Y-54.01
X157.168Y-16.01
X157.168Y-35.01
X157.168Y-54.01
X165.168Y-16.01
X165.168Y-35.01
X165.168Y-54.01
X176.168Y-16.01
X176.168Y-35.01
X176.168Y-54.01
X184.168Y-11.26
X184.168Y-30.26
X184.168Y-49.26
X195.168Y-11.26
X195.168Y-30.26
X195.168Y-49.26
X203.168Y-8.885
X203.168Y-27.885
X203.168Y-46.885
X212.668Y-68.885
X214.168Y-8.885
X214.168Y-27.885
X214.168Y-46.885
X222.168Y-11.26
X222.168Y-30.26
X222.168Y-49.26
X223.668Y-68.885
X233.168Y-11.26
X233.168Y-30.26
X233.168Y-49.26
X233.856Y-70.211
X241.168Y-13.635
X241.168Y-32.635
X241.168Y-51.635
X244.481Y-73.058
X252.168Y-13.635
X252.168Y-32.635
X252.168Y-51.635
X258.668Y-80.148
X264.168Y-70.622
T11
X2.638Y-63.007
X17.07Y-54.486
X259.432Y-54.486
X273.864Y-63.007
T12
X25.609Y-69.367
X39.364Y-21.997
X72.175Y-61.752
X96.332Y-25.512
X96.332Y-44.512
X115.332Y-25.512
X115.332Y-44.512
X161.17Y-25.512
X161.17Y-44.512
X180.17Y-25.512
X180.17Y-44.512
X204.327Y-61.752
X237.138Y-21.997
X250.893Y-69.367
T13
X15.084Y-75.385
X29.834Y-13.635
X29.834Y-32.635
X29.834Y-51.635
X37.334Y-71.635
X48.834Y-11.26
X48.834Y-30.26
X48.834Y-49.26
X58.334Y-68.885
X67.834Y-8.885
X67.834Y-27.885
X67.834Y-46.885
X86.834Y-11.26
X86.834Y-30.26
X86.834Y-49.26
X105.834Y-16.01
X105.834Y-35.01
X105.834Y-54.01
X124.834Y-16.01
X124.834Y-35.01
X124.834Y-54.01
X151.668Y-16.01
X151.668Y-35.01
X151.668Y-54.01
X170.668Y-16.01
X170.668Y-35.01
X170.668Y-54.01
X189.668Y-11.26
X189.668Y-30.26
X189.668Y-49.26
X208.668Y-8.885
X208.668Y-27.885
X208.668Y-46.885
X218.168Y-68.885
X227.668Y-11.26
X227.668Y-30.26
X227.668Y-49.26
X239.168Y-71.635
X246.668Y-13.635
X246.668Y-32.635
X246.668Y-51.635
X261.418Y-75.385
T0
M30
