G04 #@! TF.GenerationSoftware,KiCad,Pcbnew,(6.99.0-1912-g359c99991b)*
G04 #@! TF.CreationDate,2023-07-01T16:50:16+07:00*
G04 #@! TF.ProjectId,corne_chocoflan,636f726e-655f-4636-986f-636f666c616e,2*
G04 #@! TF.SameCoordinates,Original*
G04 #@! TF.FileFunction,Soldermask,Bot*
G04 #@! TF.FilePolarity,Negative*
%FSLAX46Y46*%
G04 Gerber Fmt 4.6, Leading zero omitted, Abs format (unit mm)*
G04 Created by KiCad (PCBNEW (6.99.0-1912-g359c99991b)) date 2023-07-01 16:50:16*
%MOMM*%
%LPD*%
G01*
G04 APERTURE LIST*
G04 Aperture macros list*
%AMRoundRect*
0 Rectangle with rounded corners*
0 $1 Rounding radius*
0 $2 $3 $4 $5 $6 $7 $8 $9 X,Y pos of 4 corners*
0 Add a 4 corners polygon primitive as box body*
4,1,4,$2,$3,$4,$5,$6,$7,$8,$9,$2,$3,0*
0 Add four circle primitives for the rounded corners*
1,1,$1+$1,$2,$3*
1,1,$1+$1,$4,$5*
1,1,$1+$1,$6,$7*
1,1,$1+$1,$8,$9*
0 Add four rect primitives between the rounded corners*
20,1,$1+$1,$2,$3,$4,$5,0*
20,1,$1+$1,$4,$5,$6,$7,0*
20,1,$1+$1,$6,$7,$8,$9,0*
20,1,$1+$1,$8,$9,$2,$3,0*%
%AMRotRect*
0 Rectangle, with rotation*
0 The origin of the aperture is its center*
0 $1 length*
0 $2 width*
0 $3 Rotation angle, in degrees counterclockwise*
0 Add horizontal line*
21,1,$1,$2,0,0,$3*%
G04 Aperture macros list end*
%ADD10C,2.200000*%
%ADD11C,4.300000*%
%ADD12R,1.700000X1.700000*%
%ADD13O,1.700000X1.700000*%
%ADD14C,0.500000*%
%ADD15C,1.524000*%
%ADD16C,0.900000*%
%ADD17R,0.900000X1.200000*%
%ADD18C,1.900000*%
%ADD19C,1.300000*%
%ADD20C,1.600000*%
%ADD21C,5.000000*%
%ADD22RoundRect,0.160000X0.640000X1.140000X-0.640000X1.140000X-0.640000X-1.140000X0.640000X-1.140000X0*%
%ADD23RotRect,0.900000X1.200000X300.000000*%
%ADD24RotRect,0.900000X1.200000X165.000000*%
%ADD25RoundRect,0.160000X0.913246X0.935511X-0.323139X1.266800X-0.913246X-0.935511X0.323139X-1.266800X0*%
%ADD26RotRect,0.900000X1.200000X240.000000*%
%ADD27RoundRect,0.160000X-0.667269X1.124256X-1.307269X0.015744X0.667269X-1.124256X1.307269X-0.015744X0*%
%ADD28RoundRect,0.160000X0.323139X1.266800X-0.913246X0.935511X-0.323139X-1.266800X0.913246X-0.935511X0*%
%ADD29RotRect,0.900000X1.200000X15.000000*%
%ADD30RoundRect,0.160000X1.307269X0.015744X0.667269X1.124256X-1.307269X-0.015744X-0.667269X-1.124256X0*%
G04 #@! TA.AperFunction,Profile*
%ADD31C,0.100000*%
G04 #@! TD*
%ADD32C,0.100000*%
%ADD33C,0.200000*%
G04 APERTURE END LIST*
D10*
X259432092Y-54485708D03*
D11*
X96332284Y-44511708D03*
X250893092Y-69366708D03*
X161170092Y-25511708D03*
X180170092Y-25511708D03*
D12*
X4994506Y-45249931D03*
D13*
X7534506Y-45249931D03*
X10074506Y-45249931D03*
X12614506Y-45249931D03*
X15154506Y-45249931D03*
D14*
X142801188Y-48400511D03*
X142801188Y-49140511D03*
X142801188Y-49880511D03*
X142801188Y-50620511D03*
X142801188Y-51360511D03*
X142801188Y-52100511D03*
D15*
X17740418Y-12171932D03*
X17740418Y-14711932D03*
X17740418Y-17251932D03*
X17740418Y-19791932D03*
X17740418Y-22331932D03*
X17740418Y-24871932D03*
X17740418Y-27411932D03*
X17740418Y-29951932D03*
X17740418Y-32491932D03*
X17740418Y-35031932D03*
X17740418Y-37571932D03*
X17740418Y-40111932D03*
X2520418Y-40111932D03*
X2520418Y-37571932D03*
X2520418Y-35031932D03*
X2520418Y-32491932D03*
X2520418Y-29951932D03*
X2520418Y-27411932D03*
X2520418Y-24871932D03*
X2520418Y-22331932D03*
X2520418Y-19791932D03*
X2520418Y-17251932D03*
X2520418Y-14711932D03*
X2520418Y-12171932D03*
D11*
X180170092Y-44511708D03*
X96332284Y-25511708D03*
D10*
X273864092Y-63006708D03*
D14*
X142801188Y-25150739D03*
X142801188Y-25890739D03*
X142801188Y-26630739D03*
X142801188Y-27370739D03*
X142801188Y-28110739D03*
X142801188Y-28850739D03*
D11*
X204327092Y-61752208D03*
D10*
X2638284Y-63006708D03*
D14*
X133701188Y-28850739D03*
X133701188Y-28110739D03*
X133701188Y-27370739D03*
X133701188Y-26630739D03*
X133701188Y-25890739D03*
X133701188Y-25150739D03*
D16*
X1721188Y-53500000D03*
X1721188Y-56500000D03*
D11*
X72175284Y-61752208D03*
D14*
X133701188Y-52100511D03*
X133701188Y-51360511D03*
X133701188Y-50620511D03*
X133701188Y-49880511D03*
X133701188Y-49140511D03*
X133701188Y-48400511D03*
D11*
X161170092Y-44511708D03*
X115332284Y-25511708D03*
X39364284Y-21997208D03*
D12*
X261347868Y-45249931D03*
D13*
X263887868Y-45249931D03*
X266427868Y-45249931D03*
X268967868Y-45249931D03*
X271507868Y-45249931D03*
D11*
X115332284Y-44511708D03*
X25609284Y-69366708D03*
D15*
X273984758Y-12171932D03*
X273984758Y-14711932D03*
X273984758Y-17251932D03*
X273984758Y-19791932D03*
X273984758Y-22331932D03*
X273984758Y-24871932D03*
X273984758Y-27411932D03*
X273984758Y-29951932D03*
X273984758Y-32491932D03*
X273984758Y-35031932D03*
X273984758Y-37571932D03*
X273984758Y-40111932D03*
X258764758Y-40111932D03*
X258764758Y-37571932D03*
X258764758Y-35031932D03*
X258764758Y-32491932D03*
X258764758Y-29951932D03*
X258764758Y-27411932D03*
X258764758Y-24871932D03*
X258764758Y-22331932D03*
X258764758Y-19791932D03*
X258764758Y-17251932D03*
X258764758Y-14711932D03*
X258764758Y-12171932D03*
D11*
X237138092Y-21997208D03*
D10*
X17070284Y-54485708D03*
D16*
X274781188Y-56500000D03*
X274781188Y-53500000D03*
D17*
X225851187Y-4619863D03*
X222551187Y-4619863D03*
D18*
X233168358Y-49259932D03*
D19*
X232888358Y-45059932D03*
D20*
X232668358Y-44109932D03*
D21*
X227668358Y-49259932D03*
D18*
X222168358Y-49259932D03*
D22*
X219868358Y-53009932D03*
X230468358Y-55209932D03*
D18*
X252168358Y-51634932D03*
D19*
X251888358Y-47434932D03*
D20*
X251668358Y-46484932D03*
D21*
X246668358Y-51634932D03*
D18*
X241168358Y-51634932D03*
D22*
X238868358Y-55384932D03*
X249468358Y-57584932D03*
D18*
X130334018Y-35009932D03*
D19*
X130054018Y-30809932D03*
D20*
X129834018Y-29859932D03*
D21*
X124834018Y-35009932D03*
D18*
X119334018Y-35009932D03*
D22*
X117034018Y-38759932D03*
X127634018Y-40959932D03*
D17*
X119916847Y-46019863D03*
X123216847Y-46019863D03*
X100916847Y-26969863D03*
X104216847Y-26969863D03*
D23*
X19032763Y-66728008D03*
X20682763Y-69585892D03*
D18*
X111334018Y-16009932D03*
D19*
X111054018Y-11809932D03*
D20*
X110834018Y-10859932D03*
D21*
X105834018Y-16009932D03*
D18*
X100334018Y-16009932D03*
D22*
X98034018Y-19759932D03*
X108634018Y-21959932D03*
D24*
X239359717Y-63383108D03*
X236172161Y-62529006D03*
D17*
X24716847Y-24594863D03*
X28016847Y-24594863D03*
D18*
X54334018Y-11259932D03*
D19*
X54054018Y-7059932D03*
D20*
X53834018Y-6109932D03*
D21*
X48834018Y-11259932D03*
D18*
X43334018Y-11259932D03*
D22*
X41034018Y-15009932D03*
X51634018Y-17209932D03*
D18*
X195168358Y-11259932D03*
D19*
X194888358Y-7059932D03*
D20*
X194668358Y-6109932D03*
D21*
X189668358Y-11259932D03*
D18*
X184168358Y-11259932D03*
D22*
X181868358Y-15009932D03*
X192468358Y-17209932D03*
D17*
X100916847Y-46019863D03*
X104216847Y-46019863D03*
X150101187Y-26969863D03*
X146801187Y-26969863D03*
X225899999Y-41269863D03*
X222599999Y-41269863D03*
X43766847Y-41269863D03*
X47066847Y-41269863D03*
D18*
X35334018Y-51634932D03*
D19*
X35054018Y-47434932D03*
D20*
X34834018Y-46484932D03*
D21*
X29834018Y-51634932D03*
D18*
X24334018Y-51634932D03*
D22*
X22034018Y-55384932D03*
X32634018Y-57584932D03*
D18*
X92334018Y-11259932D03*
D19*
X92054018Y-7059932D03*
D20*
X91834018Y-6109932D03*
D21*
X86834018Y-11259932D03*
D18*
X81334018Y-11259932D03*
D22*
X79034018Y-15009932D03*
X89634018Y-17209932D03*
D17*
X169051187Y-46019863D03*
X165751187Y-46019863D03*
D18*
X244480950Y-73058437D03*
D19*
X245297531Y-68929079D03*
D20*
X245330905Y-67954509D03*
D21*
X239168358Y-71634932D03*
D18*
X233855766Y-70211427D03*
D25*
X230663565Y-73238365D03*
X240332977Y-78106884D03*
D18*
X252168358Y-32634932D03*
D19*
X251888358Y-28434932D03*
D20*
X251668358Y-27484932D03*
D21*
X246668358Y-32634932D03*
D18*
X241168358Y-32634932D03*
D22*
X238868358Y-36384932D03*
X249468358Y-38584932D03*
D26*
X253596869Y-73435794D03*
X251946869Y-76293678D03*
D18*
X223668358Y-68884932D03*
D19*
X223388358Y-64684932D03*
D20*
X223168358Y-63734932D03*
D21*
X218168358Y-68884932D03*
D18*
X212668358Y-68884932D03*
D22*
X210368358Y-72634932D03*
X220968358Y-74834932D03*
D17*
X81866847Y-41269863D03*
X85166847Y-41269863D03*
D18*
X92334018Y-30259932D03*
D19*
X92054018Y-26059932D03*
D20*
X91834018Y-25109932D03*
D21*
X86834018Y-30259932D03*
D18*
X81334018Y-30259932D03*
D22*
X79034018Y-34009932D03*
X89634018Y-36209932D03*
D17*
X187951187Y-4619863D03*
X184651187Y-4619863D03*
D18*
X35334018Y-13634932D03*
D19*
X35054018Y-9434932D03*
D20*
X34834018Y-8484932D03*
D21*
X29834018Y-13634932D03*
D18*
X24334018Y-13634932D03*
D22*
X22034018Y-17384932D03*
X32634018Y-19584932D03*
D17*
X24716847Y-43644863D03*
X28016847Y-43644863D03*
D18*
X157168358Y-35009932D03*
D19*
X156888358Y-30809932D03*
D20*
X156668358Y-29859932D03*
D21*
X151668358Y-35009932D03*
D18*
X146168358Y-35009932D03*
D22*
X143868358Y-38759932D03*
X154468358Y-40959932D03*
D17*
X169051187Y-26969863D03*
X165751187Y-26969863D03*
D18*
X157168358Y-16009932D03*
D19*
X156888358Y-11809932D03*
D20*
X156668358Y-10859932D03*
D21*
X151668358Y-16009932D03*
D18*
X146168358Y-16009932D03*
D22*
X143868358Y-19759932D03*
X154468358Y-21959932D03*
D18*
X264168358Y-70621792D03*
D19*
X260391051Y-68764279D03*
D20*
X259458327Y-68479805D03*
D21*
X261418358Y-75384932D03*
D18*
X258668358Y-80148072D03*
D27*
X260765953Y-84014930D03*
X267971209Y-75935061D03*
D18*
X42646610Y-70211427D03*
D19*
X41289111Y-66227008D03*
D20*
X40830729Y-65366319D03*
D21*
X37334018Y-71634932D03*
D18*
X32021426Y-73058437D03*
D28*
X30770368Y-77275942D03*
X41578584Y-76657497D03*
D18*
X214168358Y-46884932D03*
D19*
X213888358Y-42684932D03*
D20*
X213668358Y-41734932D03*
D21*
X208668358Y-46884932D03*
D18*
X203168358Y-46884932D03*
D22*
X200868358Y-50634932D03*
X211468358Y-52834932D03*
D17*
X43716847Y-4619863D03*
X47016847Y-4619863D03*
D18*
X111334018Y-54009932D03*
D19*
X111054018Y-49809932D03*
D20*
X110834018Y-48859932D03*
D21*
X105834018Y-54009932D03*
D18*
X100334018Y-54009932D03*
D22*
X98034018Y-57759932D03*
X108634018Y-59959932D03*
D17*
X225899999Y-22219863D03*
X222599999Y-22219863D03*
D12*
X268516187Y-59499999D03*
D13*
X265976187Y-59499999D03*
D18*
X157168358Y-54009932D03*
D19*
X156888358Y-49809932D03*
D20*
X156668358Y-48859932D03*
D21*
X151668358Y-54009932D03*
D18*
X146168358Y-54009932D03*
D22*
X143868358Y-57759932D03*
X154468358Y-59959932D03*
D18*
X176168358Y-54009932D03*
D19*
X175888358Y-49809932D03*
D20*
X175668358Y-48859932D03*
D21*
X170668358Y-54009932D03*
D18*
X165168358Y-54009932D03*
D22*
X162868358Y-57759932D03*
X173468358Y-59959932D03*
D17*
X100866847Y-9369863D03*
X104166847Y-9369863D03*
X24666847Y-6994863D03*
X27966847Y-6994863D03*
D18*
X233168358Y-11259932D03*
D19*
X232888358Y-7059932D03*
D20*
X232668358Y-6109932D03*
D21*
X227668358Y-11259932D03*
D18*
X222168358Y-11259932D03*
D22*
X219868358Y-15009932D03*
X230468358Y-17209932D03*
D18*
X195168358Y-49259932D03*
D19*
X194888358Y-45059932D03*
D20*
X194668358Y-44109932D03*
D21*
X189668358Y-49259932D03*
D18*
X184168358Y-49259932D03*
D22*
X181868358Y-53009932D03*
X192468358Y-55209932D03*
D17*
X62816847Y-38894863D03*
X66116847Y-38894863D03*
X53316847Y-60844863D03*
X56616847Y-60844863D03*
D18*
X214168358Y-27884932D03*
D19*
X213888358Y-23684932D03*
D20*
X213668358Y-22734932D03*
D21*
X208668358Y-27884932D03*
D18*
X203168358Y-27884932D03*
D22*
X200868358Y-31634932D03*
X211468358Y-33834932D03*
D18*
X92334018Y-49259932D03*
D19*
X92054018Y-45059932D03*
D20*
X91834018Y-44109932D03*
D21*
X86834018Y-49259932D03*
D18*
X81334018Y-49259932D03*
D22*
X79034018Y-53009932D03*
X89634018Y-55209932D03*
D18*
X195168358Y-30259932D03*
D19*
X194888358Y-26059932D03*
D20*
X194668358Y-25109932D03*
D21*
X189668358Y-30259932D03*
D18*
X184168358Y-30259932D03*
D22*
X181868358Y-34009932D03*
X192468358Y-36209932D03*
D18*
X214168358Y-8884932D03*
D19*
X213888358Y-4684932D03*
D20*
X213668358Y-3734932D03*
D21*
X208668358Y-8884932D03*
D18*
X203168358Y-8884932D03*
D22*
X200868358Y-12634932D03*
X211468358Y-14834932D03*
D17*
X244801187Y-6994863D03*
X241501187Y-6994863D03*
X206901187Y-2244863D03*
X203601187Y-2244863D03*
X206949999Y-19844863D03*
X203649999Y-19844863D03*
D18*
X176168358Y-16009932D03*
D19*
X175888358Y-11809932D03*
D20*
X175668358Y-10859932D03*
D21*
X170668358Y-16009932D03*
D18*
X165168358Y-16009932D03*
D22*
X162868358Y-19759932D03*
X173468358Y-21959932D03*
D17*
X206949999Y-38894863D03*
X203649999Y-38894863D03*
X62766847Y-2244863D03*
X66066847Y-2244863D03*
D18*
X73334018Y-46884932D03*
D19*
X73054018Y-42684932D03*
D20*
X72834018Y-41734932D03*
D21*
X67834018Y-46884932D03*
D18*
X62334018Y-46884932D03*
D22*
X60034018Y-50634932D03*
X70634018Y-52834932D03*
D18*
X233168358Y-30259932D03*
D19*
X232888358Y-26059932D03*
D20*
X232668358Y-25109932D03*
D21*
X227668358Y-30259932D03*
D18*
X222168358Y-30259932D03*
D22*
X219868358Y-34009932D03*
X230468358Y-36209932D03*
D17*
X119916847Y-9369863D03*
X123216847Y-9369863D03*
X62816847Y-19844863D03*
X66116847Y-19844863D03*
D18*
X73334018Y-27884932D03*
D19*
X73054018Y-23684932D03*
D20*
X72834018Y-22734932D03*
D21*
X67834018Y-27884932D03*
D18*
X62334018Y-27884932D03*
D22*
X60034018Y-31634932D03*
X70634018Y-33834932D03*
D18*
X73334018Y-8884932D03*
D19*
X73054018Y-4684932D03*
D20*
X72834018Y-3734932D03*
D21*
X67834018Y-8884932D03*
D18*
X62334018Y-8884932D03*
D22*
X60034018Y-12634932D03*
X70634018Y-14834932D03*
D18*
X130334018Y-54009932D03*
D19*
X130054018Y-49809932D03*
D20*
X129834018Y-48859932D03*
D21*
X124834018Y-54009932D03*
D18*
X119334018Y-54009932D03*
D22*
X117034018Y-57759932D03*
X127634018Y-59959932D03*
D17*
X244849999Y-24594863D03*
X241549999Y-24594863D03*
X119966847Y-26969863D03*
X123266847Y-26969863D03*
D12*
X7986187Y-59499999D03*
D13*
X10526187Y-59499999D03*
D29*
X30557974Y-65147468D03*
X33745530Y-64293366D03*
D17*
X188001187Y-22219863D03*
X184701187Y-22219863D03*
X150051187Y-46019863D03*
X146751187Y-46019863D03*
D18*
X176168358Y-35009932D03*
D19*
X175888358Y-30809932D03*
D20*
X175668358Y-29859932D03*
D21*
X170668358Y-35009932D03*
D18*
X165168358Y-35009932D03*
D22*
X162868358Y-38759932D03*
X173468358Y-40959932D03*
D17*
X81816847Y-4619863D03*
X85116847Y-4619863D03*
X169001187Y-9369863D03*
X165701187Y-9369863D03*
D18*
X35334018Y-32634932D03*
D19*
X35054018Y-28434932D03*
D20*
X34834018Y-27484932D03*
D21*
X29834018Y-32634932D03*
D18*
X24334018Y-32634932D03*
D22*
X22034018Y-36384932D03*
X32634018Y-38584932D03*
D17*
X81866847Y-22219863D03*
X85166847Y-22219863D03*
X244849999Y-43644863D03*
X241549999Y-43644863D03*
D18*
X54334018Y-49259932D03*
D19*
X54054018Y-45059932D03*
D20*
X53834018Y-44109932D03*
D21*
X48834018Y-49259932D03*
D18*
X43334018Y-49259932D03*
D22*
X41034018Y-53009932D03*
X51634018Y-55209932D03*
D17*
X150051187Y-9369863D03*
X146751187Y-9369863D03*
D18*
X17834018Y-80148072D03*
D19*
X21331325Y-77805585D03*
D20*
X22044049Y-77140059D03*
D21*
X15084018Y-75384932D03*
D18*
X12334018Y-70621792D03*
D30*
X7936423Y-70504934D03*
X11331167Y-80784803D03*
D17*
X216451187Y-60844863D03*
X213151187Y-60844863D03*
D18*
X63834018Y-68884932D03*
D19*
X63554018Y-64684932D03*
D20*
X63334018Y-63734932D03*
D21*
X58334018Y-68884932D03*
D18*
X52834018Y-68884932D03*
D22*
X50534018Y-72634932D03*
X61134018Y-74834932D03*
D18*
X252168358Y-13634932D03*
D19*
X251888358Y-9434932D03*
D20*
X251668358Y-8484932D03*
D21*
X246668358Y-13634932D03*
D18*
X241168358Y-13634932D03*
D22*
X238868358Y-17384932D03*
X249468358Y-19584932D03*
D17*
X188001187Y-41269863D03*
X184701187Y-41269863D03*
D18*
X130334018Y-16009932D03*
D19*
X130054018Y-11809932D03*
D20*
X129834018Y-10859932D03*
D21*
X124834018Y-16009932D03*
D18*
X119334018Y-16009932D03*
D22*
X117034018Y-19759932D03*
X127634018Y-21959932D03*
D17*
X43766847Y-22219863D03*
X47066847Y-22219863D03*
D18*
X54334018Y-30259932D03*
D19*
X54054018Y-26059932D03*
D20*
X53834018Y-25109932D03*
D21*
X48834018Y-30259932D03*
D18*
X43334018Y-30259932D03*
D22*
X41034018Y-34009932D03*
X51634018Y-36209932D03*
D18*
X111334018Y-35009932D03*
D19*
X111054018Y-30809932D03*
D20*
X110834018Y-29859932D03*
D21*
X105834018Y-35009932D03*
D18*
X100334018Y-35009932D03*
D22*
X98034018Y-38759932D03*
X108634018Y-40959932D03*
D31*
X133249285Y-7002009D02*
X116332284Y-7002009D01*
D32*
X255750597Y-5250174D02*
X255741214Y-5149988D01*
X255702773Y-5034467D01*
X255638356Y-4933394D01*
X255551935Y-4850694D01*
X255447481Y-4790286D01*
X255328965Y-4756095D01*
X255252757Y-4749795D01*
D31*
X160670092Y-62751781D02*
X160670092Y-55502009D01*
X162170092Y-7002009D02*
X180252981Y-7002009D01*
X160170092Y-7002009D02*
X143253091Y-7002009D01*
X276502376Y-7500612D02*
X276502376Y-66974653D01*
X114832291Y-7502009D02*
G75*
G03*
X114332284Y-7002009I-499991J9D01*
G01*
X115832284Y-36502009D02*
X115832284Y-52502009D01*
D32*
X198606497Y-63398337D02*
X198520082Y-63329194D01*
X198421535Y-63281102D01*
X198314594Y-63255609D01*
X198252931Y-63251781D01*
D33*
X217253125Y-1776D02*
X217253125Y-1776D01*
D31*
X135751188Y-7502009D02*
X135751188Y-24000739D01*
X263050292Y-90783320D02*
X276276316Y-67850953D01*
D32*
X58750142Y-1750058D02*
X58739756Y-1851413D01*
X58700405Y-1967956D01*
X58635398Y-2069592D01*
X58548637Y-2152432D01*
X58444025Y-2212590D01*
X58325464Y-2246178D01*
X58249256Y-2251960D01*
X199250893Y-2250437D02*
X199352331Y-2240802D01*
X199468915Y-2202098D01*
X199570490Y-2137423D01*
X199653135Y-2050691D01*
X199712926Y-1945818D01*
X199745944Y-1826718D01*
X199751272Y-1750058D01*
X200251652Y0D02*
X200151305Y-10769D01*
X200035690Y-50475D01*
X199934676Y-115714D01*
X199852218Y-202597D01*
X199792271Y-307238D01*
X199758788Y-425749D01*
X199753048Y-501897D01*
D31*
X114832284Y-17502009D02*
X114832284Y-33502009D01*
X15380201Y-91162792D02*
X29674284Y-82901708D01*
X161670092Y-14502009D02*
X161670092Y-7502009D01*
X161670091Y-17502009D02*
G75*
G03*
X161170092Y-17002009I-499991J9D01*
G01*
D32*
X209149521Y-77855497D02*
X209235957Y-77924558D01*
X209334507Y-77972574D01*
X209441435Y-77998000D01*
X209503086Y-78001795D01*
X0Y-7500612D02*
X10005Y-7400299D01*
X49023Y-7284717D01*
X113844Y-7183721D01*
X200556Y-7101266D01*
X305246Y-7041302D01*
X424002Y-7007783D01*
X500379Y-7002009D01*
X96249395Y-7002009D02*
X96148626Y-6991871D01*
X96032633Y-6952706D01*
X95931404Y-6887721D01*
X95848890Y-6800789D01*
X95789040Y-6695784D01*
X95755806Y-6576579D01*
X95750285Y-6499853D01*
D31*
X161670119Y-62751781D02*
G75*
G03*
X162170092Y-63251781I499981J-19D01*
G01*
X160670091Y-14502009D02*
G75*
G03*
X161170092Y-15002009I500009J9D01*
G01*
X114832284Y-7502009D02*
X114832284Y-14502009D01*
D32*
X180252981Y-7002009D02*
X180353749Y-6991871D01*
X180469742Y-6952706D01*
X180570971Y-6887721D01*
X180653485Y-6800789D01*
X180713335Y-6695784D01*
X180746569Y-6576579D01*
X180752091Y-6499853D01*
X20749497Y-6501887D02*
X20739360Y-6602656D01*
X20700235Y-6718668D01*
X20635374Y-6819959D01*
X20548698Y-6902602D01*
X20444127Y-6962667D01*
X20325581Y-6996228D01*
X20249376Y-7002009D01*
D31*
X116332284Y-63251781D02*
X133249285Y-63251781D01*
D32*
X39749433Y-4251955D02*
X39739252Y-4352715D01*
X39700102Y-4468667D01*
X39635285Y-4569801D01*
X39548759Y-4652145D01*
X39444479Y-4711727D01*
X39326403Y-4744573D01*
X39250581Y-4749795D01*
D31*
X135751188Y-53250511D02*
X135751188Y-62751781D01*
D32*
X20751779Y-5250174D02*
X20761161Y-5149988D01*
X20799602Y-5034467D01*
X20864019Y-4933394D01*
X20950440Y-4850694D01*
X21054894Y-4790286D01*
X21173410Y-4756095D01*
X21249619Y-4749795D01*
X255752879Y-6501887D02*
X255763015Y-6602656D01*
X255802140Y-6718668D01*
X255867001Y-6819959D01*
X255953677Y-6902602D01*
X256058248Y-6962667D01*
X256176794Y-6996228D01*
X256253000Y-7002009D01*
D31*
X114332284Y-7002009D02*
X96249395Y-7002009D01*
X180752091Y-2750817D02*
X180752091Y-6499853D01*
D32*
X236752943Y-4251955D02*
X236763123Y-4352715D01*
X236802273Y-4468667D01*
X236867090Y-4569801D01*
X236953616Y-4652145D01*
X237057896Y-4711727D01*
X237175972Y-4744573D01*
X237251795Y-4749795D01*
X133751188Y-62750638D02*
X133741000Y-62851406D01*
X133701788Y-62967425D01*
X133636784Y-63068762D01*
X133549874Y-63151521D01*
X133444945Y-63211804D01*
X133325886Y-63245714D01*
X133249285Y-63251781D01*
D31*
X198606497Y-63398337D02*
X209149521Y-77855497D01*
D32*
X143253091Y-7002009D02*
X143152317Y-7012141D01*
X143036268Y-7051258D01*
X142934867Y-7116103D01*
X142852000Y-7202748D01*
X142791556Y-7307268D01*
X142757422Y-7425737D01*
X142751188Y-7501882D01*
D31*
X160670092Y-52502009D02*
X160670092Y-36502009D01*
X115332284Y-34001984D02*
G75*
G03*
X115832284Y-33502009I16J499984D01*
G01*
X161670092Y-36502009D02*
X161670092Y-52502009D01*
X140751188Y-53250511D02*
X140751188Y-62751781D01*
X246828092Y-82901708D02*
X261122175Y-91162792D01*
X67352855Y-77855497D02*
X77895879Y-63398337D01*
X161170092Y-34001992D02*
G75*
G03*
X161670092Y-33502009I8J499992D01*
G01*
D32*
X261122175Y-91162792D02*
X261243752Y-91236101D01*
X261369682Y-91295626D01*
X261498999Y-91341548D01*
X261630743Y-91374049D01*
X261763948Y-91393309D01*
X261897653Y-91399512D01*
X262030894Y-91392838D01*
X262162708Y-91373470D01*
X262292133Y-91341588D01*
X262418204Y-91297376D01*
X262539960Y-91241013D01*
X262656436Y-91172683D01*
X262766671Y-91092567D01*
X262869700Y-91000847D01*
X262964561Y-90897704D01*
X263050292Y-90783320D01*
D31*
X160670091Y-33502009D02*
G75*
G03*
X161170092Y-34002009I500009J9D01*
G01*
D32*
X67352855Y-77855497D02*
X67266418Y-77924558D01*
X67167868Y-77972574D01*
X67060940Y-77998000D01*
X66999290Y-78001795D01*
D31*
X133751188Y-30000739D02*
X133751188Y-47250511D01*
X161670091Y-36502009D02*
G75*
G03*
X161170092Y-36002009I-499991J9D01*
G01*
X20249376Y-7002009D02*
X500379Y-7002009D01*
X114832291Y-52502009D02*
G75*
G03*
X115332284Y-53002009I500009J9D01*
G01*
X160170092Y-63251792D02*
G75*
G03*
X160670092Y-62751781I8J499992D01*
G01*
X140751188Y-47250511D02*
X140751188Y-30000739D01*
X142751188Y-47250511D02*
X142751188Y-30000739D01*
X39250581Y-4749795D02*
X21249619Y-4749795D01*
D33*
X59249251Y-1776D02*
X59249251Y-1776D01*
D31*
X114832291Y-33502009D02*
G75*
G03*
X115332284Y-34002009I500009J9D01*
G01*
X160670092Y-17502009D02*
X160670092Y-33502009D01*
X115332284Y-53001984D02*
G75*
G03*
X115832284Y-52502009I16J499984D01*
G01*
X161170092Y-15001992D02*
G75*
G03*
X161670092Y-14502009I8J499992D01*
G01*
X217752234Y-1750058D02*
X217752234Y-500379D01*
X162170092Y-63251781D02*
X198252931Y-63251781D01*
D32*
X39750961Y-2750817D02*
X39760633Y-2650421D01*
X39799327Y-2534763D01*
X39863888Y-2433720D01*
X39950358Y-2351237D01*
X40054777Y-2291259D01*
X40173189Y-2257735D01*
X40249306Y-2251960D01*
X95249400Y-2250437D02*
X95350133Y-2261114D01*
X95466114Y-2300699D01*
X95567417Y-2365788D01*
X95650140Y-2452468D01*
X95710384Y-2556828D01*
X95744249Y-2674957D01*
X95750285Y-2750817D01*
X217752234Y-1750058D02*
X217762619Y-1851413D01*
X217801970Y-1967956D01*
X217866977Y-2069592D01*
X217953738Y-2152432D01*
X218058350Y-2212590D01*
X218176911Y-2246178D01*
X218253120Y-2251960D01*
D31*
X115832284Y-33502009D02*
X115832284Y-17502009D01*
X58750142Y-500379D02*
X58750142Y-1750058D01*
X209503086Y-78001795D02*
X246173536Y-82772168D01*
X162170092Y-7001992D02*
G75*
G03*
X161670092Y-7502009I8J-500008D01*
G01*
X160670091Y-52502009D02*
G75*
G03*
X161170092Y-53002009I500009J9D01*
G01*
D32*
X77251483Y-2250437D02*
X77150044Y-2240802D01*
X77033460Y-2202098D01*
X76931885Y-2137423D01*
X76849240Y-2050691D01*
X76789449Y-1945818D01*
X76756431Y-1826718D01*
X76751104Y-1750058D01*
D31*
X161170092Y-53001992D02*
G75*
G03*
X161670092Y-52502009I8J499992D01*
G01*
X199753048Y-501897D02*
X199751272Y-1750058D01*
X95249400Y-2250437D02*
X77251483Y-2250437D01*
X115332284Y-15001984D02*
G75*
G03*
X115832284Y-14502009I16J499984D01*
G01*
X39750961Y-2750817D02*
X39749433Y-4251955D01*
X20749497Y-6501887D02*
X20751779Y-5250174D01*
X115832291Y-55502009D02*
G75*
G03*
X115332284Y-55002009I-499991J9D01*
G01*
D32*
X15380201Y-91162792D02*
X15258623Y-91236101D01*
X15132693Y-91295626D01*
X15003376Y-91341548D01*
X14871632Y-91374049D01*
X14738427Y-91393309D01*
X14604722Y-91399512D01*
X14471481Y-91392838D01*
X14339667Y-91373470D01*
X14210242Y-91341588D01*
X14084171Y-91297376D01*
X13962415Y-91241013D01*
X13845939Y-91172683D01*
X13735704Y-91092567D01*
X13632675Y-91000847D01*
X13537814Y-90897704D01*
X13452084Y-90783320D01*
D31*
X136251188Y-7001988D02*
G75*
G03*
X135751188Y-7502009I12J-500012D01*
G01*
X160670092Y-7502009D02*
X160670092Y-14502009D01*
D32*
X217752234Y-500379D02*
X217742351Y-400108D01*
X217703436Y-284514D01*
X217638661Y-183407D01*
X217551941Y-100710D01*
X217447190Y-40344D01*
X217328323Y-6233D01*
X217251855Y0D01*
X276502376Y-7500612D02*
X276492370Y-7400299D01*
X276453352Y-7284717D01*
X276388531Y-7183721D01*
X276301819Y-7101266D01*
X276197129Y-7041302D01*
X276078373Y-7007783D01*
X276001997Y-7002009D01*
D31*
X142751188Y-7501882D02*
X142751188Y-24000739D01*
X115832284Y-55502009D02*
X115832284Y-62751781D01*
X140251188Y-7002009D02*
X136251188Y-7002009D01*
D32*
X181252976Y-2250437D02*
X181152242Y-2261114D01*
X181036261Y-2300699D01*
X180934958Y-2365788D01*
X180852235Y-2452468D01*
X180791991Y-2556828D01*
X180758126Y-2674957D01*
X180752091Y-2750817D01*
D31*
X140251188Y-63251781D02*
X136251188Y-63251781D01*
D32*
X226060Y-67850953D02*
X172453Y-67749381D01*
X125872Y-67644879D01*
X86424Y-67537774D01*
X54220Y-67428392D01*
X29366Y-67317063D01*
X11973Y-67204111D01*
X2148Y-67089865D01*
X0Y-66974653D01*
D31*
X115332284Y-17001984D02*
G75*
G03*
X114832284Y-17502009I16J-500016D01*
G01*
X161170092Y-55001992D02*
G75*
G03*
X160670092Y-55502009I8J-500008D01*
G01*
D32*
X58750142Y-500379D02*
X58760024Y-400108D01*
X58798939Y-284514D01*
X58863714Y-183407D01*
X58950434Y-100710D01*
X59055185Y-40344D01*
X59174052Y-6233D01*
X59250521Y0D01*
D31*
X142751188Y-53250511D02*
X142751188Y-62750638D01*
X114332284Y-63251781D02*
X78249445Y-63251781D01*
X30328840Y-82772168D02*
X66999290Y-78001795D01*
X217251855Y0D02*
X200251652Y0D01*
X236752943Y-4251955D02*
X236751415Y-2750817D01*
X115832291Y-36502009D02*
G75*
G03*
X115332284Y-36002009I-499991J9D01*
G01*
X114832291Y-14502009D02*
G75*
G03*
X115332284Y-15002009I500009J9D01*
G01*
X133751188Y-62750638D02*
X133751188Y-53250511D01*
X95750285Y-6499853D02*
X95750285Y-2750817D01*
X114332284Y-63251784D02*
G75*
G03*
X114832284Y-62751781I16J499984D01*
G01*
X76250724Y0D02*
X59250521Y0D01*
X114832284Y-62751781D02*
X114832284Y-55502009D01*
D32*
X76250724Y0D02*
X76351070Y-10769D01*
X76466685Y-50475D01*
X76567699Y-115714D01*
X76650157Y-202597D01*
X76710104Y-307238D01*
X76743587Y-425749D01*
X76749328Y-501897D01*
D31*
X255252757Y-4749795D02*
X237251795Y-4749795D01*
X115332284Y-36001984D02*
G75*
G03*
X114832284Y-36502009I16J-500016D01*
G01*
X161170092Y-17001992D02*
G75*
G03*
X160670092Y-17502009I8J-500008D01*
G01*
D32*
X29674284Y-82901708D02*
X29774742Y-82873044D01*
X29875978Y-82847480D01*
X29977921Y-82825028D01*
X30080498Y-82805703D01*
X30183637Y-82789520D01*
X30287267Y-82776492D01*
X30328840Y-82772168D01*
D31*
X255750597Y-5250174D02*
X255752879Y-6501887D01*
X226060Y-67850953D02*
X13452084Y-90783320D01*
D32*
X133249285Y-7002009D02*
X133350058Y-7012141D01*
X133466107Y-7051258D01*
X133567508Y-7116103D01*
X133650375Y-7202748D01*
X133710819Y-7307268D01*
X133744953Y-7425737D01*
X133751188Y-7501882D01*
D31*
X133751188Y-24000739D02*
X133751188Y-7501882D01*
X40249306Y-2251960D02*
X58249256Y-2251960D01*
X115832291Y-17502009D02*
G75*
G03*
X115332284Y-17002009I-499991J9D01*
G01*
X115332284Y-55001984D02*
G75*
G03*
X114832284Y-55502009I16J-500016D01*
G01*
X140751191Y-7502009D02*
G75*
G03*
X140251188Y-7002009I-499991J9D01*
G01*
X115832284Y-14502009D02*
X115832284Y-7502009D01*
X135751188Y-47250511D02*
X135751188Y-30000739D01*
X114832284Y-52502009D02*
X114832284Y-36502009D01*
X76751104Y-1750058D02*
X76749328Y-501897D01*
X161670092Y-33502009D02*
X161670092Y-17502009D01*
D32*
X142751188Y-62750638D02*
X142761375Y-62851406D01*
X142800587Y-62967425D01*
X142865591Y-63068762D01*
X142952501Y-63151521D01*
X143057430Y-63211804D01*
X143176489Y-63245714D01*
X143253091Y-63251781D01*
D31*
X140751188Y-24000739D02*
X140751188Y-7502009D01*
X161170092Y-36001992D02*
G75*
G03*
X160670092Y-36502009I8J-500008D01*
G01*
X116332284Y-7001984D02*
G75*
G03*
X115832284Y-7502009I16J-500016D01*
G01*
X160670091Y-7502009D02*
G75*
G03*
X160170092Y-7002009I-499991J9D01*
G01*
X161670092Y-55502009D02*
X161670092Y-62751781D01*
X115832319Y-62751781D02*
G75*
G03*
X116332284Y-63251781I499981J-19D01*
G01*
X161670091Y-55502009D02*
G75*
G03*
X161170092Y-55002009I-499991J9D01*
G01*
X0Y-66974653D02*
X0Y-7500612D01*
D32*
X236751415Y-2750817D02*
X236741742Y-2650421D01*
X236703048Y-2534763D01*
X236638487Y-2433720D01*
X236552017Y-2351237D01*
X236447598Y-2291259D01*
X236329186Y-2257735D01*
X236253070Y-2251960D01*
D31*
X135751219Y-62751781D02*
G75*
G03*
X136251188Y-63251781I499981J-19D01*
G01*
D32*
X246828092Y-82901708D02*
X246727633Y-82873044D01*
X246626397Y-82847480D01*
X246524454Y-82825028D01*
X246421877Y-82805703D01*
X246318738Y-82789520D01*
X246215108Y-82776492D01*
X246173536Y-82772168D01*
D31*
X199250893Y-2250437D02*
X181252976Y-2250437D01*
D32*
X276276316Y-67850953D02*
X276329922Y-67749381D01*
X276376503Y-67644879D01*
X276415951Y-67537774D01*
X276448155Y-67428392D01*
X276473009Y-67317063D01*
X276490402Y-67204111D01*
X276500227Y-67089865D01*
X276502376Y-66974653D01*
D31*
X140251188Y-63251788D02*
G75*
G03*
X140751188Y-62751781I12J499988D01*
G01*
X276001997Y-7002009D02*
X256253000Y-7002009D01*
X143253091Y-63251781D02*
X160170092Y-63251781D01*
D32*
X77895879Y-63398337D02*
X77982293Y-63329194D01*
X78080840Y-63281102D01*
X78187781Y-63255609D01*
X78249445Y-63251781D01*
D31*
X218253120Y-2251960D02*
X236253070Y-2251960D01*
X142751188Y-53250511D02*
G75*
G03*
X140751188Y-53250511I-1000000J0D01*
G01*
X140751188Y-47250511D02*
G75*
G03*
X142751188Y-47250511I1000000J0D01*
G01*
X142751188Y-30000739D02*
G75*
G03*
X140751188Y-30000739I-1000000J0D01*
G01*
X140751188Y-24000739D02*
G75*
G03*
X142751188Y-24000739I1000000J0D01*
G01*
X133751188Y-24000739D02*
G75*
G03*
X135751188Y-24000739I1000000J0D01*
G01*
X135751188Y-30000739D02*
G75*
G03*
X133751188Y-30000739I-1000000J0D01*
G01*
X133751188Y-47250511D02*
G75*
G03*
X135751188Y-47250511I1000000J0D01*
G01*
X135751188Y-53250511D02*
G75*
G03*
X133751188Y-53250511I-1000000J0D01*
G01*
M02*
